<svg xmlns="http://www.w3.org/2000/svg" width="638.858" height="639.094" viewBox="0 0 638.858 639.094">
  <g id="ball" transform="translate(-0.429 149.692) rotate(-17)" opacity="0.35">
    <path id="Caminho_1" data-name="Caminho 1" d="M265.367,255.9a9.145,9.145,0,1,1-9.145-9.145,9.144,9.144,0,0,1,9.145,9.145Zm0,0" fill="#fff"/>
    <path id="Caminho_2" data-name="Caminho 2" d="M.449,246.758H137.832a118.738,118.738,0,0,1,236.8,0H511.991C507.054,109.07,394,0,256.221,0S5.389,109.07.448,246.758ZM132.6,52.82A237.144,237.144,0,0,1,189.48,27.695a9.144,9.144,0,0,1,5.129,17.555,217.908,217.908,0,0,0-52.453,23.18,9.144,9.144,0,1,1-9.527-15.609ZM98,90.7a9.145,9.145,0,0,1,.238,12.918A220.393,220.393,0,0,0,68.75,141.808a9.144,9.144,0,1,1-15.609-9.527A239.109,239.109,0,0,1,85.066,90.937,9.145,9.145,0,0,1,98,90.7Zm0,0" fill="#fff"/>
    <path id="Caminho_3" data-name="Caminho 3" d="M256.223,191.9a64,64,0,1,0,64,64,64,64,0,0,0-64-64Zm0,91.43a27.43,27.43,0,1,1,27.43-27.43A27.43,27.43,0,0,1,256.223,283.332Zm0,0" fill="#fff"/>
    <path id="Caminho_4" data-name="Caminho 4" d="M256.223,511.9c137.742-.176,250.711-109.207,255.77-246.855H374.614a118.738,118.738,0,0,1-236.8,0H.451C5.513,402.7,118.482,511.727,256.224,511.9Zm131.656-80.457a219.825,219.825,0,0,0,55.773-61.457,9.141,9.141,0,0,1,15.605,9.523,237.612,237.612,0,0,1-60.406,66.563,9.143,9.143,0,0,1-10.973-14.629Zm0,0" fill="#fff"/>
    <path id="Caminho_5" data-name="Caminho 5" d="M256.223,155.332A100.57,100.57,0,1,0,356.793,255.9,100.571,100.571,0,0,0,256.223,155.332Zm0,182.855A82.285,82.285,0,1,1,338.508,255.9a82.285,82.285,0,0,1-82.285,82.285Zm0,0" fill="#fff"/>
  </g>
</svg>
